<?xml version="1.0" encoding="utf-8"?>
<!-- Generator: Adobe Illustrator 16.0.4, SVG Export Plug-In . SVG Version: 6.00 Build 0)  -->
<!DOCTYPE svg PUBLIC "-//W3C//DTD SVG 1.1//EN" "http://www.w3.org/Graphics/SVG/1.1/DTD/svg11.dtd">
<svg version="1.1" id="W_-_Alumni_Association" xmlns="http://www.w3.org/2000/svg" xmlns:xlink="http://www.w3.org/1999/xlink"
	 x="0px" y="0px" width="141.667px" height="101px" viewBox="237.5 356.167 141.667 101"
	 enable-background="new 237.5 356.167 141.667 101" xml:space="preserve">
<g>
	<g>
		<path fill="#FFFFFF" d="M246.66,400.21c0.47,0,0.58-0.06,0.41-0.6l-0.54-1.67c-0.29-0.881-0.56-1.73-0.75-2.16
			c-0.2,0.45-0.53,1.319-0.84,2.27l-0.51,1.55c-0.19,0.561-0.08,0.601,0.4,0.62L246.66,400.21z M244.46,401.3
			c-0.49,0-0.56,0.03-0.68,0.42l-0.75,2.391c-0.12,0.409-0.14,0.58-0.14,0.739c0,0.101,0.2,0.2,0.7,0.351l0.62,0.1
			c0.12,0.101,0.2,0.62-0.04,0.72c-0.72-0.039-1.55-0.029-2.41-0.05c-0.7,0-1.17,0.061-2.12,0.07c-0.23-0.12-0.21-0.55-0.07-0.72
			l0.56-0.061c0.49-0.06,0.9-0.229,1.25-1.04c0.35-0.83,0.72-1.81,1.27-3.3l1.84-5.04c0.47-1.3,0.86-2.02,0.79-2.609
			c0.98-0.23,1.75-1.24,1.78-1.24c0.27,0,0.4,0.1,0.5,0.41c0.17,0.6,0.4,1.399,0.9,2.819l2.83,8.061c0.44,1.2,0.6,1.7,1.4,1.8
			l0.78,0.12c0.13,0.1,0.2,0.6-0.01,0.72c-0.99-0.04-2.11-0.05-3.18-0.05c-1.03,0-1.83,0.03-2.78,0.1
			c-0.23-0.12-0.27-0.55-0.04-0.72l0.66-0.11c0.47-0.08,0.55-0.229,0.55-0.35c0-0.14-0.14-0.64-0.39-1.4l-0.56-1.77
			c-0.1-0.33-0.27-0.37-0.99-0.37l-2.27,0.02V401.3z"/>
		<path fill="#FFFFFF" d="M257.87,406.25c-1.9,0.01-3.07-0.53-3.51-0.77c-0.39-0.461-0.66-1.94-0.67-3.341
			c0.14-0.27,0.62-0.29,0.78-0.069c0.42,1.3,1.8,3.199,3.5,3.22c1.52-0.01,2.22-1.06,2.22-2.09c0-1.67-1.58-2.65-2.82-3.26
			c-1.48-0.74-3.11-1.96-3.12-4c-0.03-2.33,1.77-3.94,4.76-3.95c0.68,0,1.5,0.1,2.4,0.319c0.27,0.101,0.5,0.101,0.7,0.2
			c0.17,0.5,0.4,1.601,0.4,2.94c-0.1,0.25-0.62,0.27-0.8,0.06c-0.36-1.05-1.25-2.55-2.73-2.54c-1.36,0-2.1,0.9-2.1,1.9
			c0.01,0.899,0.8,1.8,1.9,2.34l1.36,0.72c1.28,0.7,2.9,1.9,2.9,4.13c0.01,2.54-2.04,4.141-5.14,4.141"/>
		<path fill="#FFFFFF" d="M268.56,406.21c-1.9,0.01-3.07-0.53-3.51-0.77c-0.39-0.46-0.66-1.94-0.67-3.33
			c0.14-0.271,0.62-0.29,0.78-0.07c0.42,1.3,1.8,3.2,3.6,3.22c1.52-0.01,2.22-1.06,2.22-2.09c-0.01-1.67-1.58-2.65-2.81-3.27
			c-1.49-0.74-3.12-1.971-3.13-4c-0.03-2.33,1.78-3.94,4.77-3.95c0.68,0,1.5,0.1,2.4,0.319c0.27,0.101,0.5,0.101,0.7,0.2
			c0.17,0.5,0.4,1.601,0.4,2.94c-0.1,0.25-0.61,0.27-0.8,0.06c-0.35-1.05-1.25-2.55-2.73-2.54c-1.36,0-2.1,0.9-2.09,1.9
			c0,0.9,0.8,1.8,1.9,2.34l1.36,0.72c1.27,0.7,2.9,1.9,2.9,4.13c-0.11,2.58-2.15,4.181-5.25,4.181"/>
		<path fill="#FFFFFF" d="M282.6,392.86c-2.54,0.01-3.88,2.38-3.87,5.819c0.01,2.5,0.9,6.5,4.3,6.5c2.7-0.01,3.74-2.649,3.73-5.989
			c-0.05-3.49-1.66-6.29-4.16-6.29 M290.01,398.95c0.02,4.49-2.98,7.2-7.41,7.2c-4.14,0.01-7.15-2.69-7.17-7
			c-0.01-4.08,3.02-7.24,7.32-7.25c4.29,0,7.25,2.899,7.25,7"/>
		<path fill="#FFFFFF" d="M304.35,392.37c0,0.399,0.1,2,0.3,3.22c-0.08,0.24-0.63,0.33-0.78,0.101c-0.56-1.91-1.89-2.94-3.88-2.931
			c-2.29,0.01-4.73,1.971-4.72,6.07c0.01,4.1,2.4,6.3,4.9,6.29c2.49-0.01,3.64-1.811,4.19-3.21c0.16-0.17,0.66-0.101,0.8,0.14
			c-0.14,1.521-0.48,2.761-0.77,3.23c-1.11,0.319-2.57,0.77-4.17,0.78c-2.02,0.01-4.08-0.461-5.55-1.54
			c-1.49-1.131-2.63-2.83-2.64-5.391c-0.01-2.51,1.06-4.29,2.48-5.47c1.46-1.22,3.55-1.84,5.69-1.851c2.01,0.091,3.5,0.49,4.2,0.591
			"/>
		<path fill="#FFFFFF" d="M310.87,402.73c0.01,1.899,0.101,2.1,1.101,2.239l0.579,0.101c0.171,0.1,0.101,0.6-0.021,0.699
			c-1.109-0.029-2.119-0.05-3.09-0.05c-0.989,0-2.02,0.03-3.129,0.07c-0.17-0.12-0.17-0.6,0-0.72l0.581-0.11
			c0.949-0.17,1.069-0.31,1.06-2.25l-0.021-7.58c-0.01-1.93-0.13-2.08-1.08-2.24l-0.58-0.1c-0.17-0.13-0.17-0.6,0-0.72
			c1.11,0,2.1,0.1,3.1,0.06c0.97,0,2-0.03,3.11-0.08c0.17,0.101,0.199,0.601,0,0.721l-0.58,0.1c-0.94,0.17-1.07,0.31-1.061,2.2
			L310.87,402.73z"/>
		<path fill="#FFFFFF" d="M320.15,399.96c0.47,0,0.57-0.06,0.41-0.6l-0.541-1.67c-0.289-0.881-0.56-1.73-0.75-2.16
			c-0.199,0.45-0.529,1.319-0.83,2.27l-0.51,1.55c-0.18,0.561-0.08,0.601,0.4,0.61H320.15z M317.95,401.1
			c-0.49,0.011-0.56,0.03-0.681,0.42l-0.75,2.4c-0.129,0.41-0.149,0.58-0.149,0.74c0,0.1,0.2,0.2,0.8,0.35l0.62,0.101
			c0.12,0.1,0.2,0.609-0.04,0.72c-0.721-0.04-1.54-0.03-2.41-0.061c-0.699,0-1.18,0.07-2.119,0.07c-0.23-0.12-0.211-0.55-0.061-0.72
			l0.55-0.061c0.49-0.06,0.91-0.229,1.25-1.04c0.351-0.829,0.71-1.81,1.261-3.3l1.84-5.04c0.469-1.3,0.859-2.02,0.789-2.609
			c0.99-0.24,1.75-1.24,1.791-1.24c0.27,0,0.399,0.1,0.5,0.41c0.17,0.6,0.399,1.399,0.899,2.82l2.819,8.1
			c0.44,1.2,0.601,1.7,1.4,1.83l0.79,0.12c0.12,0.1,0.2,0.6-0.02,0.72c-0.99-0.04-2.101-0.05-3.181-0.05
			c-1.029,0-1.83,0.03-2.779,0.069c-0.23-0.119-0.271-0.55-0.04-0.72l0.659-0.109c0.48-0.08,0.561-0.23,0.561-0.351
			c0-0.14-0.15-0.64-0.391-1.399l-0.569-1.771c-0.101-0.33-0.271-0.38-0.99-0.37l-2.35-0.08V401.1z"/>
		<path fill="#FFFFFF" d="M330.51,393.62c0-0.49,0-0.59-0.5-0.59h-1.279c-1.51,0-1.931,0.83-2.551,2.3
			c-0.24,0.13-0.63,0.09-0.76-0.18c0.43-1.42,0.53-2.7,0.67-3.5c0.08-0.061,0.18-0.101,0.29-0.101s0.2,0,0.3,0.101
			c0.09,0.3,0.2,0.399,1.7,0.43l7.67-0.03c1.36,0,1.671-0.03,1.851-0.46c0.08-0.05,0.149-0.06,0.27-0.06s0.301,0.1,0.301,0.1
			c-0.201,0.7-0.351,2.37-0.301,3.54c-0.1,0.19-0.66,0.23-0.77,0.07c-0.351-1.32-0.641-2.28-2.18-2.28h-1.24
			c-0.5,0-0.561,0.07-0.561,0.6l0.03,9.08c0.01,1.9,0.101,2.101,1.101,2.2l0.819,0.101c0.14,0.1,0.101,0.6,0,0.699
			c-1.34-0.029-2.37-0.05-3.3-0.05c-0.99,0-2.061,0.03-3.5,0.07c-0.17-0.12-0.17-0.6,0-0.72l0.92-0.11c0.93-0.1,1.05-0.29,1.04-2.21
			L330.51,393.62z"/>
		<path fill="#FFFFFF" d="M344.16,402.61c0,1.899,0.1,2.1,1.1,2.239l0.57,0.101c0.17,0.1,0.1,0.6-0.02,0.7
			c-1.11-0.03-2.11-0.051-3.08-0.051c-0.99,0-2.021,0.03-3.141,0.07c-0.16-0.12-0.16-0.6,0-0.72l0.58-0.11
			c0.95-0.17,1.07-0.31,1.061-2.25l-0.03-7.58c-0.011-1.939-0.13-2.08-1.08-2.239l-0.58-0.101c-0.16-0.13-0.16-0.6,0-0.72
			c1.12,0,2.101,0.1,3.101,0.05c0.959,0,2-0.03,3.1-0.08c0.17,0.101,0.199,0.601,0,0.72l-0.57,0.101c-0.949,0.17-1.07,0.31-1.07,2.2
			L344.16,402.61z"/>
		<path fill="#FFFFFF" d="M354.77,392.61c-2.529,0.01-3.89,2.38-3.879,5.819c0.01,2.5,0.899,6.5,4.299,6.5
			c2.701-0.01,3.74-2.649,3.73-5.989c-0.04-3.44-1.62-6.341-4.12-6.341 M362.189,398.7c0.021,4.49-2.979,7.2-7.41,7.2
			c-4.139,0.01-7.149-2.69-7.159-7c-0.021-4.08,3.021-7.24,7.33-7.25c4.271-0.051,7.25,2.85,7.25,7.05"/>
		<path fill="#FFFFFF" d="M376.73,402.01c0,1.3,0,2.601,0,3.311c-0.141,0.25-0.721,0.479-1.211,0.479c-0.02,0-0.699-1.05-1.68-2.24
			l-4.779-5.88c-1.201-1.46-1.881-2.319-2.261-2.63c-0.1,0.21-0.1,0.55-0.09,1.32l0.011,4c0.01,1.7,0.1,3.2,0.299,3.8
			c0.181,0.4,0.701,0.6,1.201,0.65l0.579,0.08c0.171,0.199,0.101,0.6,0,0.72c-1.11-0.03-1.94-0.061-2.75-0.05
			c-0.77,0-1.53,0.029-2.31,0.1c-0.131-0.12-0.17-0.56,0-0.72l0.35-0.061c0.561-0.109,0.971-0.25,1.131-0.68
			c0.229-0.56,0.279-2.1,0.27-3.77l-0.02-5.23c0-1.13-0.031-1.46-0.15-1.75c-0.17-0.35-0.461-0.6-1.18-0.7l-0.58-0.08
			c-0.141-0.16-0.121-0.66,0.08-0.72c0.969,0,2,0.1,2.799,0.1c0.701,0,1.301-0.029,1.73-0.069c0.21,0.899,1.6,2.5,3.4,4.689
			l1.729,2.03c0.91,1.1,1.5,1.8,2,2.26c0.08-0.21,0.08-0.55,0.08-0.93l-0.01-2.84c0-1.67-0.09-3.21-0.32-3.771
			c-0.18-0.43-0.64-0.58-1.2-0.649l-0.56-0.08c-0.16-0.16-0.12-0.601,0-0.72c1.11,0,1.899,0.1,2.8,0.06c0.76,0,1.5-0.03,2.311-0.07
			c0.129,0.101,0.199,0.601,0,0.721l-0.371,0.06c-0.539,0.08-0.92,0.25-1.119,0.7c-0.221,0.56-0.29,2.1-0.29,3.78L376.73,402.01z"/>
		<path fill="#FFFFFF" d="M253.98,376.18c1.02-0.01,1.24-0.14,0.88-1.29l-1.16-3.58c-0.63-1.899-1.21-3.71-1.61-4.64
			c-0.44,0.97-1.14,2.84-1.8,4.87l-1.1,3.32c-0.39,1.199-0.17,1.3,0.9,1.33L253.98,376.18z M249.25,378.5
			c-1.06,0-1.2,0.05-1.46,0.89l-1.62,5.141c-0.26,0.89-0.3,1.239-0.3,1.6c0,0.3,0.4,0.5,1.6,0.74l1.33,0.2
			c0.27,0.3,0.4,1.33-0.08,1.55c-1.55-0.08-3.32-0.07-5.17-0.11c-1.51,0-2.52,0.141-4.56,0.15c-0.49-0.26-0.45-1.19-0.14-1.55
			l1.19-0.141c1.06-0.14,1.94-0.489,2.69-2.22c0.75-1.77,1.54-3.9,2.72-7.09l3.95-10.811c1.01-2.79,1.84-4.34,1.7-5.63
			c2.13-0.489,3.76-2.67,3.84-2.67c0.58,0,0.8,0.2,1,0.88c0.36,1.301,0.9,2.9,2,6.061l6.08,17.3c0.94,2.7,1.3,3.7,3,3.93l1.68,0.261
			c0.27,0.199,0.4,1.279-0.04,1.55c-2.13-0.08-4.52-0.11-6.82-0.101c-2.21,0.011-3.94,0.061-5.98,0.15
			c-0.48-0.26-0.58-1.19-0.09-1.55l1.41-0.221c1.02-0.18,1.2-0.489,1.19-0.76c0-0.31-0.31-1.37-0.85-3l-1.21-3.8
			c-0.22-0.71-0.58-0.79-2.13-0.79l-4.93,0.08V378.5z"/>
		<path fill="#FFFFFF" d="M270.8,363.86c-0.01-1.771-0.01-2.25-0.89-2.78l-0.76-0.44c-0.31-0.27-0.31-1.06,0-1.33
			c1.9-0.449,4.56-1.52,6.76-2.5c0.27,0,0.6,0.101,0.8,0.311c-0.09,1.81-0.12,3.67-0.11,6.46l0.07,19.7c0.01,3.1,0.2,3.5,1.7,3.62
			l0.76,0.08c0.35,0.3,0.4,1.279-0.04,1.55c-1.46-0.08-3.32-0.12-5.31-0.11c-1.9,0.01-3.76,0.061-5.31,0.15
			c-0.4-0.261-0.4-1.28-0.05-1.551l0.84-0.09c1.46-0.14,1.64-0.54,1.62-3.63L270.8,363.86z"/>
		<path fill="#FFFFFF" d="M300.65,382.52c0.01,2.601,0.1,3.801,1.2,3.75c0.58,0,1.24-0.18,1.77-0.359c0.4,0.1,0.5,1.68-0.12,1.899
			c-4.34,0.19-8.05,1.62-8.18,1.62c-0.31-0.04-0.49-0.26-0.53-0.52c0.09-0.53,0.12-1.24,0.12-1.601c0-0.26-0.22-0.439-0.49-0.439
			c-1.72,1.11-3.27,2.14-6.01,2.149c-3.67,0.011-5.18-1.88-5.2-5.649l-0.03-7.521c-0.01-2.35-0.28-2.569-1.34-2.869l-0.58-0.181
			c-0.31-0.399-0.27-1.24,0.17-1.55c1.46-0.05,3.01-0.18,4.29-0.41c1.33-0.229,2.61-0.76,2.78-0.76c0.27,0,0.5,0.3,0.5,0.5
			c-0.09,1.11-0.13,2.3-0.12,3.9l0.03,7.3c0.01,2.1,0.3,4,3.1,3.97c1.24,0,1.95-0.58,2.3-0.85c0.31-0.221,0.48-0.891,0.48-1.33
			l-0.03-8.36c-0.01-1.77-0.31-2.17-1.91-2.38l-0.62-0.09c-0.35-0.311-0.31-1.37,0.22-1.55c1.59-0.091,3.19-0.28,4.6-0.46
			c1.55-0.23,2.87-0.721,3.14-0.721c0.18,0,0.4,0.2,0.5,0.53c-0.04,0.8-0.12,2.26-0.12,3.9L300.65,382.52z"/>
		<path fill="#FFFFFF" d="M307.57,376.52c-0.01-1.77-0.01-2.3-0.85-2.829L306.1,373.3c-0.31-0.27-0.32-1.069,0-1.33
			c2.041-0.58,5.169-1.79,6.53-2.59c0.36,0,0.601,0.101,0.8,0.4c0,0.609-0.119,1.68-0.119,1.989c0,0.301,0.1,0.301,0.199,0.301
			c0.131,0,0.57-0.23,0.84-0.36c0.971-0.58,2.961-1.78,5.08-1.79c1.6,0,3,0.5,4,1.67c0.53,0.601,0.801,0.8,1.1,0.8
			c0.181,0,0.57-0.31,1.41-0.76c0.98-0.54,2.65-1.729,5.041-1.74c3.5-0.01,5.399,2.5,5.399,5.561l0.03,7.609
			c0.01,3.101,0.199,3.5,1.6,3.601l0.711,0.09c0.35,0.3,0.299,1.28-0.051,1.55c-1.37-0.08-3.05-0.12-5.18-0.109
			c-1.76,0-3.631,0.06-4.83,0.1c-0.4-0.26-0.4-1.28-0.04-1.55l0.71-0.09c1.1-0.141,1.279-0.54,1.279-2.971l-0.02-7.529
			c-0.01-1.681-0.939-3.08-2.98-3.08c-1.239,0.01-2.17,0.58-2.479,1.109c-0.17,0.271-0.31,0.71-0.31,1.33l0.029,8.19
			c0.01,2.399,0.2,2.8,1.2,2.96l0.71,0.1c0.35,0.3,0.4,1.28-0.039,1.55c-1.371-0.079-2.791-0.119-4.781-0.109
			c-1.77,0.01-3.539,0.05-4.689,0.14c-0.4-0.26-0.4-1.28-0.05-1.55l0.71-0.09c1.01-0.13,1.189-0.53,1.18-2.97l-0.029-7.53
			c-0.011-1.681-0.891-3.09-3.021-3.08c-1.149,0-2.04,0.58-2.39,1.1c-0.26,0.311-0.34,0.84-0.34,1.641l0.029,7.92
			c0.01,2.399,0.2,2.8,1.301,2.96l0.709,0.09c0.36,0.3,0.4,1.28-0.039,1.6c-1.371-0.08-2.791-0.119-4.91-0.109
			c-1.99,0.01-3.721,0.06-5.041,0.149c-0.44-0.26-0.44-1.279-0.09-1.55l0.71-0.09c1.459-0.18,1.64-0.54,1.629-3.63L307.57,376.52z"
			/>
		<path fill="#FFFFFF" d="M343.24,376.4c0-1.771-0.01-2.301-0.85-2.83l-0.621-0.391c-0.31-0.27-0.31-1.069-0.01-1.33
			c2.08-0.59,5.26-1.79,6.54-2.59c0.36,0,0.601,0.101,0.8,0.4c0,0.609-0.13,1.67-0.13,1.99c0,0.3,0.101,0.3,0.2,0.3
			c0.13,0,0.57-0.23,0.84-0.36c0.971-0.58,3.04-1.78,5.08-1.79c3.67-0.01,5.5,2.5,5.6,5.561l0.021,7.609
			c0.01,3.101,0.2,3.5,1.8,3.601l0.71,0.08c0.351,0.3,0.4,1.279-0.04,1.55c-1.369-0.08-3.23-0.12-5.359-0.11
			c-1.771,0.01-3.5,0.061-4.78,0.101c-0.399-0.261-0.399-1.28-0.05-1.551l0.8-0.13c1.01-0.18,1.19-0.49,1.18-2.93l-0.03-7.48
			c-0.01-1.729-0.89-3.13-3.109-3.13c-1.24,0-2.12,0.58-2.471,1.061c-0.27,0.31-0.359,0.85-0.35,1.64l0.03,7.92
			c0.01,2.4,0.2,2.8,1.3,2.96l0.71,0.101c0.351,0.3,0.399,1.279-0.04,1.55c-1.369-0.08-2.779-0.12-4.91-0.11
			c-1.869,0.01-3.68,0.061-5.22,0.141c-0.41-0.261-0.41-1.28-0.06-1.551l0.709-0.09c1.58-0.18,1.771-0.54,1.75-3.63L343.24,376.4z"
			/>
		<path fill="#FFFFFF" d="M373.63,362.97c0.011,2.13-1.62,3.24-3.3,3.24c-1.95,0.01-3.109-1.32-3.109-3.13
			c-0.011-1.95,1.539-3.24,3.299-3.24c1.881-0.04,3.08,1.36,3.08,3.16 M373.359,382.98c0.011,3.1,0.201,3.5,1.601,3.619l0.84,0.101
			c0.351,0.3,0.3,1.28-0.04,1.55c-1.54-0.08-3.27-0.12-5.31-0.11c-1.99,0.011-3.851,0.051-5.31,0.141
			c-0.4-0.261-0.4-1.28-0.061-1.55l0.84-0.091c1.471-0.14,1.641-0.54,1.63-3.63l-0.021-6.68c0-1.77-0.01-2.3-0.85-2.83l-0.619-0.39
			c-0.311-0.271-0.32-1.07,0-1.33c2.08-0.59,5.209-1.79,6.539-2.59c0.351,0,0.601,0.1,0.801,0.399c-0.09,1.32-0.121,3.271-0.11,5.26
			L373.359,382.98z"/>
	</g>
</g>
<g>
	<path fill="#FFFFFF" d="M299.68,442.76c0,4.5,0.1,4.601,2.4,4.98l1.03,0.189c0.27,0.301,0.3,1.221-0.08,1.4
		c-1.79-0.09-3.59-0.14-5.27-0.14c-1.95,0-3.7,0.05-5.53,0.14c-0.34-0.14-0.34-1.08-0.08-1.36l1.03-0.189
		c2.29-0.38,2.44-0.471,2.44-4.98V427.9c0-3.101-0.11-4.23-1.83-4.471l-1.83-0.229c-0.23-0.24-0.23-0.94-0.04-1.13
		c3.17-0.75,5.84-1.88,7.4-2.96c0.23,0.1,0.4,0.199,0.4,0.42c-0.08,0.989-0.11,3.81-0.11,5.689v17.54H299.68z"/>
	<path fill="#FFFFFF" d="M318.43,445.07c2.91,0,3.59-0.38,4.84-2.99c0.28-0.19,0.851-0.1,1,0.29c-0.56,3.51-1.369,5.979-1.979,6.899
		c-0.771-0.05-1.58-0.1-2.42-0.1c-0.851-0.05-1.74-0.05-2.66-0.05h-9c-2.26,0-3.59,0.05-4.44,0.14c-0.24-0.189-0.36-0.47-0.24-0.85
		c2.18-2.28,3.59-3.75,6.05-6.79c3.07-3.7,5.85-9.25,5.85-14.23c0-3.8-2.33-6.55-5.27-6.55c-2.301,0-3.71,2.18-4.96,4.7
		c-0.48,0.1-0.97-0.14-1.05-0.71c1.49-4.18,4.68-6.97,8.44-6.97c4.32,0,7.5,3.399,7.5,7.88c0,3.04-0.811,6.62-4.529,11.53
		l-3.311,4.1c-1.73,2.14-1.9,2.75-1.9,3.09c0,0.4,0.2,0.7,1.2,0.66h6.88V445.07z"/>
	<path fill="#FFFFFF" d="M337.16,418.1c0.24,0.101,0.4,0.2,0.4,0.431c-0.24,1.279-0.771,2.8-1.58,3.89l-9.291,1.3
		c-1.129,0.19-1.209,0.29-1.449,1.33l-0.41,2.641c-0.12,0.5,0,0.8,0.8,0.899l2.83,0.57c3.19,0.6,9,4.1,9,11.5
		c0.101,9.6-10.04,15.64-16.54,15.93c-0.49-0.29-0.65-1.14-0.279-1.609c5.689-0.811,12.869-4.421,12.869-12.601
		c0-6.7-5.85-9.52-10.33-9.71c-0.85,0-0.97-0.24-0.689-1.47l2.18-10.2c0.16-0.76,0.4-1.19,1.05-1.28L337.16,418.1z"/>
</g>
<g>
	<g>
		<path fill="#FFFFFF" d="M241.05,437.83c0,0.9,0.1,1.1,0.7,1.12l0.49,0.04c0.11,0.1,0.1,0.38-0.02,0.399
			c-0.43-0.02-1.14-0.04-1.88-0.04c-0.79,0-1.5,0.011-1.93,0.04c-0.12-0.04-0.13-0.34-0.02-0.42l0.49-0.04
			c0.58-0.05,0.66-0.17,0.66-1.12v-3.89c0-0.79-0.05-0.98-0.57-1.04l-0.55-0.07c-0.11-0.06-0.12-0.35-0.02-0.42
			c0.49-0.069,1.05-0.2,1.52-0.33c0.52-0.159,0.98-0.38,1.06-0.38c0.06,0,0.1,0,0.2,0.13c-0.02,0.271-0.04,0.82-0.04,1.42v4.601
			H241.05z"/>
		<path fill="#FFFFFF" d="M242.78,437.58c0-0.94,0.63-1.6,1.57-1.95c-0.74-0.399-1.26-0.99-1.26-1.81c0-1.19,0.96-2.07,2.44-2.07
			c1.35,0,2.3,0.7,2.3,1.88c0,0.82-0.67,1.33-1.3,1.62c0.89,0.5,1.6,1.1,1.6,2.25c0,1.14-0.87,2.04-2.74,2
			c-1.4,0-2.59-0.6-2.59-1.92H242.78z M246.57,437.89c0-0.939-0.66-1.46-1.64-1.93c-0.43,0.43-0.61,0.89-0.61,1.6
			c0,0.801,0.5,1.5,1.3,1.46c0.48-0.02,0.98-0.42,0.98-1.13H246.57z M244.54,433.4c0,0.6,0.4,1.1,1.4,1.5
			c0.37-0.23,0.57-0.73,0.57-1.301c0-0.819-0.51-1.29-0.99-1.29c-0.56-0.01-1.02,0.49-1.02,1.091H244.54z"/>
		<path fill="#FFFFFF" d="M249.09,437.58c0-0.94,0.63-1.6,1.57-1.95c-0.74-0.399-1.26-0.99-1.26-1.81c0-1.19,0.96-2.07,2.44-2.07
			c1.35,0,2.3,0.7,2.3,1.88c0,0.82-0.67,1.33-1.3,1.62c0.89,0.5,1.6,1.1,1.6,2.25c0,1.14-0.87,2.04-2.74,2c-1.39,0-2.6-0.6-2.6-1.92
			H249.09z M252.88,437.89c0-0.939-0.65-1.46-1.64-1.93c-0.43,0.43-0.61,0.89-0.61,1.6c0,0.801,0.5,1.5,1.3,1.46
			c0.48-0.02,0.97-0.42,0.97-1.13H252.88z M250.85,433.4c0,0.6,0.4,1.1,1.4,1.5c0.37-0.23,0.57-0.73,0.57-1.301
			c0-0.819-0.51-1.29-0.99-1.29c-0.56-0.01-1.03,0.49-1.03,1.091H250.85z"/>
		<path fill="#FFFFFF" d="M260.77,434.81c0,1.44-0.63,2.69-1.64,3.62c-0.99,0.92-2.57,1.62-3.57,1.7c-0.14-0.06-0.15-0.31-0.05-0.39
			c2.32-0.57,3.53-2.57,3.53-4.76c0-0.9-0.26-2.631-1.26-2.631c-0.56,0-0.88,0.681-0.88,1.4c0,1,0.4,2,1.2,2.14
			c0.15,0,0.2,0,0.3,0.021c0.06,0,0.1,0.2,0.1,0.25c-0.2,0.21-0.69,0.37-1.18,0.399c-1.12,0-2.02-0.92-2.02-2.119
			c0-1.521,1.17-2.61,2.64-2.61c1.82-0.03,2.86,1.27,2.86,2.979H260.77z"/>
		<path fill="#FFFFFF" d="M264.64,436.29c0.11,0.1,0.2,0.3,0.2,0.5c0,0.16-0.06,0.35-0.15,0.46l-2.86,0.3
			c-0.1-0.09-0.18-0.26-0.18-0.479c0-0.23,0.08-0.37,0.18-0.49L264.64,436.29z"/>
		<path fill="#FFFFFF" d="M269.35,438.14c0.87,0,1.01-0.02,1.36-0.659c0.08-0.08,0.36-0.08,0.4,0.069
			c-0.11,0.74-0.38,1.561-0.58,1.9c-0.24-0.01-0.46-0.021-0.73-0.021c-0.26-0.01-0.56-0.01-0.94-0.01h-1.89
			c-0.62,0-1.13,0.01-1.33,0c-0.11-0.02-0.14-0.15-0.12-0.26c0.45-0.42,1.13-1.05,1.85-1.83c0.82-0.91,1.56-1.91,1.56-3.18
			c0-0.82-0.5-1.45-1.3-1.45c-0.68,0-1.16,0.439-1.54,1.1c-0.14,0.101-0.37,0.021-0.39-0.17c0.49-1.2,1.58-1.86,2.74-1.86
			c1.39,0,2.2,0.9,2.2,2c0,0.931-0.36,1.61-1.8,2.94l-0.57,0.54c-0.52,0.49-0.63,0.66-0.63,0.75c0,0.1,0.1,0.1,0.2,0.14H269.35
			L269.35,438.14z"/>
		<path fill="#FFFFFF" d="M277.42,435.64c0,1.92-0.82,3.891-2.75,3.891c-1.93,0-2.75-1.98-2.75-3.891c0-1.85,0.82-3.89,2.75-3.89
			c1.93,0.05,2.73,2.05,2.73,3.89H277.42z M274.67,438.99c0.91,0,1.01-2.29,1.01-3.351c0-1.06-0.11-3.35-1.01-3.35
			s-1.01,2.29-1.01,3.35c0,1.061,0.14,3.36,1.04,3.351H274.67z"/>
		<path fill="#FFFFFF" d="M281.21,437.83c0,0.9,0.1,1.1,0.7,1.12l0.49,0.04c0.11,0.1,0.1,0.38-0.02,0.399
			c-0.43-0.02-1.14-0.04-1.88-0.04c-0.79,0-1.5,0.011-1.93,0.04c-0.12-0.04-0.13-0.34-0.02-0.42l0.49-0.04
			c0.58-0.05,0.66-0.17,0.66-1.12v-3.89c0-0.79-0.05-0.98-0.57-1.04l-0.55-0.07c-0.11-0.06-0.12-0.35-0.02-0.42
			c0.49-0.069,1.05-0.2,1.52-0.33c0.52-0.159,0.98-0.38,1.06-0.38c0.06,0,0.1,0,0.2,0.13c-0.02,0.271-0.04,0.82-0.04,1.42v4.601
			H281.21z"/>
		<path fill="#FFFFFF" d="M285.81,437.5c0-0.31-0.02-0.35-0.27-0.35h-2.75c-0.14-0.061-0.18-0.23-0.13-0.381l3.87-5.529
			c0.13-0.19,0.23-0.29,0.39-0.29h0.35c0.2,0,0.3,0.1,0.1,0.319l-3.57,4.961c-0.11,0.159-0.12,0.199,0.3,0.25h1.46
			c0.25,0,0.27-0.04,0.27-0.341v-1.67c0-0.279,0.07-0.359,0.26-0.43c0.31-0.13,0.95-0.37,1.16-0.37c0.11,0,0.2,0.1,0.2,0.2v2.26
			c0,0.3,0,0.3,0.3,0.34h0.79c0.18,0.101,0.2,0.601,0,0.67h-0.79c-0.25,0-0.27,0.04-0.27,0.351v0.33c0,1,0.1,1.1,0.6,1.1l0.25,0.021
			c0.11,0.1,0.1,0.38-0.02,0.42c-0.43-0.021-1.06-0.04-1.61-0.04c-0.79,0-1.5,0.01-1.91,0c-0.12-0.04-0.13-0.34-0.02-0.42l0.49-0.04
			c0.58-0.04,0.65-0.141,0.65-1.12v-0.24H285.81z"/>
	</g>
	<rect x="238.6" y="427.1" fill="#FFFFFF" width="51" height="0.4"/>
	<rect x="238.6" y="443.4" fill="#FFFFFF" width="51" height="0.399"/>
</g>
<g>
	<g>
		<path fill="#FFFFFF" d="M343.85,437.68c0,1.101,0.101,1.2,0.601,1.261l0.47,0.06c0.08,0.1,0.1,0.3,0,0.4
			c-0.77-0.021-1.34-0.04-1.91-0.04s-1.15,0.01-1.85,0.04c-0.09-0.07-0.09-0.341,0-0.41l0.4-0.061c0.529-0.08,0.6-0.16,0.6-1.26
			v-0.59c0-0.59-0.01-0.78-0.32-1.4l-1.4-2.89c-0.239-0.48-0.34-0.66-0.75-0.74l-0.399-0.069c-0.11-0.091-0.09-0.381,0.05-0.41
			c0.53,0,1,0,1.7,0.04c0.72,0,1.319-0.011,1.72-0.04c0.11,0.1,0.1,0.3,0,0.41l-0.4,0.1c-0.209,0.05-0.279,0.09-0.279,0.11
			c0,0.1,0.1,0.3,0.3,0.819l0.55,1.26c0.18,0.4,0.4,0.9,0.5,1.101c0.34-0.58,0.67-1.26,0.99-1.86c0.45-0.84,0.609-1.22,0.609-1.37
			c0-0.069-0.119-0.12-0.399-0.159l-0.271-0.051c-0.09-0.06-0.109-0.35,0.011-0.41c0.47,0,0.899,0,1.3,0.04
			c0.45,0,0.811-0.01,1.15-0.04c0.14,0.101,0.1,0.301,0.1,0.4l-0.311,0.061c-0.209,0.05-0.43,0.119-0.56,0.279
			c-0.18,0.221-0.47,0.65-1.04,1.67l-0.74,1.34c-0.31,0.551-0.42,0.851-0.42,1.521V437.68L343.85,437.68z"/>
		<path fill="#FFFFFF" d="M350.109,434.66c0,0.3,0,0.3,0.301,0.35h0.81c0.61,0,0.74-0.08,0.87-0.649l0.061-0.29
			c0.08-0.09,0.379-0.09,0.399,0.01c-0.021,0.38-0.03,0.8-0.03,1.25s0.01,0.9,0,1.25c-0.06,0.11-0.35,0.12-0.43,0.01l-0.061-0.29
			c-0.129-0.569-0.26-0.66-0.869-0.66h-0.811c-0.32,0-0.33,0.011-0.33,0.37v1.4c0,0.5,0.101,0.899,0.201,1.1
			c0.149,0.2,0.399,0.3,1.199,0.311c1.02,0,1.42-0.04,2.07-1.37c0.09-0.13,0.39-0.08,0.4,0.06c-0.051,0.61-0.33,1.57-0.49,1.9
			c-0.311-0.01-0.75-0.021-1.24-0.021c-0.471-0.01-1-0.01-1.48-0.01h-1.529c-0.561,0-1.141,0.01-2.021,0.04
			c-0.09-0.07-0.09-0.35,0-0.41l0.55-0.08c0.53-0.069,0.601-0.149,0.601-1.239V433.3c0-1.069-0.07-1.149-0.601-1.25l-0.289-0.06
			c-0.11-0.07-0.091-0.34,0.02-0.41c0.279,0,0.6,0,0.8,0.02c0.28,0,0.601,0,0.8,0.011h2.49c0.75,0,1.42-0.011,1.58-0.04
			c0.01,0.199,0.1,1,0.1,1.8c-0.05,0.13-0.32,0.149-0.439,0.05c-0.131-0.41-0.29-0.77-0.45-0.93c-0.22-0.221-0.58-0.37-1.149-0.37
			h-0.94c-0.39,0-0.39,0.02-0.39,0.46v2.08H350.109z"/>
		<path fill="#FFFFFF" d="M357.02,436.71c-0.279,0-0.319,0.01-0.39,0.24l-0.44,1.37c-0.069,0.229-0.08,0.33-0.08,0.399
			c0,0.101,0.101,0.101,0.4,0.2l0.35,0.061c0.07,0.1,0.101,0.35-0.02,0.409c-0.41-0.02-0.88-0.02-1.38-0.04
			c-0.399,0-0.67,0.04-1.21,0c-0.13-0.069-0.12-0.319-0.04-0.409l0.319-0.04c0.281-0.04,0.531-0.131,0.721-0.591
			c0.21-0.47,0.41-1.04,0.73-1.88l1.06-2.87c0.28-0.739,0.5-1.149,0.46-1.489c0.561-0.13,1-0.71,1.02-0.71
			c0.15,0,0.201,0.1,0.301,0.229c0.09,0.3,0.199,0.8,0.5,1.61l1.6,4.6c0.25,0.7,0.3,1,0.8,1.05l0.45,0.07
			c0.07,0.1,0.1,0.34-0.01,0.41c-0.561-0.021-1.2-0.04-1.811-0.04c-0.59,0-1.05,0.01-1.59,0.04c-0.13-0.07-0.15-0.32-0.02-0.41
			l0.38-0.06c0.271-0.051,0.319-0.13,0.319-0.2c0-0.08-0.08-0.37-0.219-0.8l-0.32-1.011c-0.061-0.189-0.15-0.21-0.561-0.21h-1.32
			V436.71z M358.279,436.09c0.271,0,0.341-0.04,0.24-0.34l-0.31-0.95c-0.17-0.51-0.319-0.99-0.42-1.24
			c-0.12,0.261-0.3,0.75-0.479,1.29l-0.291,0.881c-0.119,0.319-0.05,0.3,0.2,0.35h1.06V436.09z"/>
		<path fill="#FFFFFF" d="M363.32,433.51c0-1.18-0.021-1.31-0.521-1.38l-0.319-0.05c-0.121-0.061-0.121-0.35,0.02-0.41
			c0.88-0.06,1.8-0.11,2.92-0.11c1,0,1.9,0.101,2.301,0.421c0.68,0.399,1,1,1,1.739c0,1.05-0.711,1.5-1.25,1.8
			c-0.121,0.061-0.121,0.131-0.061,0.261c0.779,1.6,1.3,2.5,1.8,2.939c0.31,0.2,0.601,0.3,0.8,0.33c0.11,0.101,0.1,0.2,0.1,0.3
			c-0.189,0.08-0.56,0.11-0.93,0.11c-1.08,0-1.77-0.39-2.279-1.229c-0.381-0.62-0.65-1.2-0.92-1.82
			c-0.141-0.32-0.33-0.41-0.621-0.41c-0.409,0-0.439,0.02-0.439,0.26v1.45c0,1.1,0.1,1.2,0.6,1.26l0.32,0.061
			c0.08,0.1,0.1,0.3,0,0.399c-0.619-0.02-1.16-0.04-1.73-0.04c-0.59,0-1.109,0.011-1.719,0.04c-0.091-0.069-0.091-0.35,0-0.41
			l0.319-0.06c0.53-0.09,0.601-0.18,0.601-1.26v-4.19H363.32z M364.939,435.01c0,0.4,0,0.5,0.701,0.45c0.42,0,0.67-0.11,0.89-0.33
			c0.2-0.2,0.42-0.58,0.42-1.27c0-1.061-0.62-1.74-1.54-1.74c-0.48,0-0.48,0.04-0.51,0.6v2.29H364.939z"/>
		<path fill="#FFFFFF" d="M372.91,439.56c-1.08,0-1.75-0.31-2-0.449c-0.221-0.261-0.381-1.11-0.381-1.91
			c0.08-0.15,0.351-0.17,0.451-0.04c0.24,0.8,1,1.899,2,1.85c0.869,0,1.27-0.6,1.27-1.189c0-0.95-0.891-1.521-1.6-1.87
			c-0.851-0.42-1.771-1.13-1.78-2.29c0-1.33,1.021-2.25,2.729-2.25c0.391,0,0.9,0.1,1.301,0.189c0.149,0.101,0.3,0.101,0.399,0.091
			c0.091,0.3,0.2,0.899,0.2,1.699c-0.061,0.141-0.35,0.15-0.46,0.04c-0.2-0.6-0.71-1.46-1.55-1.46c-0.78,0-1.2,0.511-1.2,1.09
			c0,0.5,0.5,1,1.101,1.341l0.779,0.399c0.73,0.4,1.7,1.101,1.7,2.36c0,1.439-1.17,2.439-2.97,2.399H372.91z"/>
	</g>
	<rect x="340.1" y="427.1" fill="#FFFFFF" width="35.801" height="0.4"/>
	<rect x="340.7" y="443.4" fill="#FFFFFF" width="35.1" height="0.399"/>
</g>
</svg>
